# xmcd CD database file
#
# Track frame offsets:
#	150
#	19335
#	38598
#	61258
#	82951
#	105016
#	122410
#	145833
#	167255
#	186885
#	206099
#	225001
#	246918
#	262875
#	282557
#
# Disc length: 4015 seconds
#
# Revision: 1
# Processed by: cddbd v1.5.2PL0 Copyright (c) Steve Scherf et al.
# Submitted via: CDex 1.70beta2
#
DISCID=b60fad0f
DTITLE=張學友 - 當我想起你 
DYEAR=1900
DGENRE=Pop
TTITLE0=當我想起你 
TTITLE1=Something Only Love Can Do
TTITLE2=心如刀割
TTITLE3=他來聽我的演唱會
TTITLE4=走過1999
TTITLE5=你好毒
TTITLE6=讓你飛
TTITLE7=耐人尋味
TTITLE8=接近
TTITLE9=深海
TTITLE10=別提你的心
TTITLE11=想和你去吹吹風
TTITLE12=有個人
TTITLE13=不後悔
TTITLE14=愛下去
EXTD=
EXTT0=
EXTT1=
EXTT2=
EXTT3=
EXTT4=
EXTT5=
EXTT6=
EXTT7=
EXTT8=
EXTT9=
EXTT10=
EXTT11=
EXTT12=
EXTT13=
EXTT14=
PLAYORDER=
